<?xml version="1.0" standalone="no"?>
<!DOCTYPE svg PUBLIC "-//W3C//DTD SVG 1.1//EN" "http://www.w3.org/Graphics/SVG/1.1/DTD/svg11.dtd">
<svg width="255mm" height="245mm" viewBox="-75 -100 255 245" xmlns="http://www.w3.org/2000/svg" version="1.1">
<title>OpenSCAD Model</title>
<path d="
M 140,-0.0547791 L 141.045,-0.0547791 L 143.09,-0.489426 L 145,-1.33974 L 146.691,-2.56854 L 148.09,-4.12215
 L 149.135,-5.93263 L 149.781,-7.92087 L 150,-10 L 150,-90 L 149.781,-92.0791 L 149.135,-94.0674
 L 148.09,-95.8778 L 146.691,-97.4314 L 145,-98.6602 L 143.09,-99.5106 L 141.045,-99.9452 L 140,-99.9452
 L 140,-100 L 90,-100 L 90,-99.9452 L 88.9547,-99.9452 L 86.9098,-99.5106 L 85,-98.6602
 L 83.3087,-97.4314 L 81.9098,-95.8778 L 80.8645,-94.0674 L 80.2185,-92.0791 L 80,-90 L 80,-10
 L 80.2185,-7.92087 L 80.8645,-5.93263 L 81.9098,-4.12215 L 83.3087,-2.56854 L 85,-1.33974 L 86.9098,-0.489426
 L 88.9547,-0.0547791 L 90,-0.0547791 L 90,-0 L 140,-0 z
M 139.791,-88.011 L 139.382,-88.0979 L 139,-88.2679 L 138.662,-88.5137 L 138.382,-88.8244 L 138.173,-89.1865
 L 138.044,-89.5842 L 138,-90 L 138.044,-90.4158 L 138.173,-90.8135 L 138.382,-91.1756 L 138.662,-91.4863
 L 139,-91.732 L 139.382,-91.9021 L 139.791,-91.989 L 140.209,-91.989 L 140.618,-91.9021 L 141,-91.732
 L 141.338,-91.4863 L 141.618,-91.1756 L 141.827,-90.8135 L 141.956,-90.4158 L 142,-90 L 141.956,-89.5842
 L 141.827,-89.1865 L 141.618,-88.8244 L 141.338,-88.5137 L 141,-88.2679 L 140.618,-88.0979 L 140.209,-88.011
 z
M 89.7909,-88.011 L 89.382,-88.0979 L 89,-88.2679 L 88.6617,-88.5137 L 88.382,-88.8244 L 88.1729,-89.1865
 L 88.0437,-89.5842 L 88,-90 L 88.0437,-90.4158 L 88.1729,-90.8135 L 88.382,-91.1756 L 88.6617,-91.4863
 L 89,-91.732 L 89.382,-91.9021 L 89.7909,-91.989 L 90.209,-91.989 L 90.618,-91.9021 L 91,-91.732
 L 91.3383,-91.4863 L 91.618,-91.1756 L 91.8271,-90.8135 L 91.9563,-90.4158 L 92,-90 L 91.9563,-89.5842
 L 91.8271,-89.1865 L 91.618,-88.8244 L 91.3383,-88.5137 L 91,-88.2679 L 90.618,-88.0979 L 90.209,-88.011
 z
M 94.676,-71.917 L 94.0421,-72.0517 L 93.45,-72.3153 L 92.9257,-72.6963 L 92.4921,-73.1779 L 92.168,-73.7391
 L 91.9677,-74.3555 L 91.9,-75 L 91.9677,-75.6445 L 92.168,-76.2609 L 92.4921,-76.8221 L 92.9257,-77.3037
 L 93.45,-77.6847 L 94.0421,-77.9483 L 94.676,-78.083 L 95.324,-78.083 L 95.9579,-77.9483 L 96.55,-77.6847
 L 97.0743,-77.3037 L 97.5079,-76.8221 L 97.832,-76.2609 L 98.0323,-75.6445 L 98.1,-75 L 98.0323,-74.3555
 L 97.832,-73.7391 L 97.5079,-73.1779 L 97.0743,-72.6963 L 96.55,-72.3153 L 95.9579,-72.0517 L 95.324,-71.917
 z
M 114.676,-71.917 L 114.042,-72.0517 L 113.45,-72.3153 L 112.926,-72.6963 L 112.492,-73.1779 L 112.168,-73.7391
 L 111.968,-74.3555 L 111.9,-75 L 111.968,-75.6445 L 112.168,-76.2609 L 112.492,-76.8221 L 112.926,-77.3037
 L 113.45,-77.6847 L 114.042,-77.9483 L 114.676,-78.083 L 115.324,-78.083 L 115.958,-77.9483 L 116.55,-77.6847
 L 117.074,-77.3037 L 117.508,-76.8221 L 117.832,-76.2609 L 118.032,-75.6445 L 118.1,-75 L 118.032,-74.3555
 L 117.832,-73.7391 L 117.508,-73.1779 L 117.074,-72.6963 L 116.55,-72.3153 L 115.958,-72.0517 L 115.324,-71.917
 z
M 134.676,-71.917 L 134.042,-72.0517 L 133.45,-72.3153 L 132.926,-72.6963 L 132.492,-73.1779 L 132.168,-73.7391
 L 131.968,-74.3555 L 131.9,-75 L 131.968,-75.6445 L 132.168,-76.2609 L 132.492,-76.8221 L 132.926,-77.3037
 L 133.45,-77.6847 L 134.042,-77.9483 L 134.676,-78.083 L 135.324,-78.083 L 135.958,-77.9483 L 136.55,-77.6847
 L 137.074,-77.3037 L 137.508,-76.8221 L 137.832,-76.2609 L 138.032,-75.6445 L 138.1,-75 L 138.032,-74.3555
 L 137.832,-73.7391 L 137.508,-73.1779 L 137.074,-72.6963 L 136.55,-72.3153 L 135.958,-72.0517 L 135.324,-71.917
 z
M 86.85,-74 L 86.85,-76 L 87.35,-76 L 87.35,-74 z
M 106.85,-74 L 106.85,-76 L 107.35,-76 L 107.35,-74 z
M 126.85,-74 L 126.85,-76 L 127.35,-76 L 127.35,-74 z
M 92.4,-49.85 L 92.4,-54.85 L 137.6,-54.85 L 137.6,-49.85 z
M 92.4,-20.15 L 92.4,-25.15 L 137.6,-25.15 L 137.6,-20.15 z
M 139.791,-8.01096 L 139.382,-8.09789 L 139,-8.26794 L 138.662,-8.5137 L 138.382,-8.82442 L 138.173,-9.18652
 L 138.044,-9.58417 L 138,-10 L 138.044,-10.4158 L 138.173,-10.8135 L 138.382,-11.1756 L 138.662,-11.4863
 L 139,-11.732 L 139.382,-11.9021 L 139.791,-11.989 L 140.209,-11.989 L 140.618,-11.9021 L 141,-11.732
 L 141.338,-11.4863 L 141.618,-11.1756 L 141.827,-10.8135 L 141.956,-10.4158 L 142,-10 L 141.956,-9.58417
 L 141.827,-9.18652 L 141.618,-8.82442 L 141.338,-8.5137 L 141,-8.26794 L 140.618,-8.09789 L 140.209,-8.01096
 z
M 89.7909,-8.01096 L 89.382,-8.09789 L 89,-8.26794 L 88.6617,-8.5137 L 88.382,-8.82442 L 88.1729,-9.18652
 L 88.0437,-9.58417 L 88,-10 L 88.0437,-10.4158 L 88.1729,-10.8135 L 88.382,-11.1756 L 88.6617,-11.4863
 L 89,-11.732 L 89.382,-11.9021 L 89.7909,-11.989 L 90.209,-11.989 L 90.618,-11.9021 L 91,-11.732
 L 91.3383,-11.4863 L 91.618,-11.1756 L 91.8271,-10.8135 L 91.9563,-10.4158 L 92,-10 L 91.9563,-9.58417
 L 91.8271,-9.18652 L 91.618,-8.82442 L 91.3383,-8.5137 L 91,-8.26794 L 90.618,-8.09789 L 90.209,-8.01096
 z
M 60,-0.0547791 L 61.0453,-0.0547791 L 63.0902,-0.489426 L 65,-1.33974 L 66.6913,-2.56854 L 68.0902,-4.12215
 L 69.1355,-5.93263 L 69.7815,-7.92087 L 70,-10 L 70,-90 L 69.7815,-92.0791 L 69.1355,-94.0674
 L 68.0902,-95.8778 L 66.6913,-97.4314 L 65,-98.6602 L 63.0902,-99.5106 L 61.0453,-99.9452 L 60,-99.9452
 L 60,-100 L 10,-100 L 10,-99.9452 L 8.95471,-99.9452 L 6.90982,-99.5106 L 5,-98.6602
 L 3.30869,-97.4314 L 1.90982,-95.8778 L 0.864532,-94.0674 L 0.218521,-92.0791 L 0,-90 L 0,-10
 L 0.218521,-7.92087 L 0.864532,-5.93263 L 1.90982,-4.12215 L 3.30869,-2.56854 L 5,-1.33974 L 6.90982,-0.489426
 L 8.95471,-0.0547791 L 10,-0.0547791 L 10,-0 L 60,-0 z
M 9.79094,-88.011 L 9.38196,-88.0979 L 9,-88.2679 L 8.66173,-88.5137 L 8.38196,-88.8244 L 8.1729,-89.1865
 L 8.0437,-89.5842 L 8,-90 L 8.0437,-90.4158 L 8.1729,-90.8135 L 8.38196,-91.1756 L 8.66173,-91.4863
 L 9,-91.732 L 9.38196,-91.9021 L 9.79094,-91.989 L 10.209,-91.989 L 10.618,-91.9021 L 11,-91.732
 L 11.3383,-91.4863 L 11.618,-91.1756 L 11.8271,-90.8135 L 11.9563,-90.4158 L 12,-90 L 11.9563,-89.5842
 L 11.8271,-89.1865 L 11.618,-88.8244 L 11.3383,-88.5137 L 11,-88.2679 L 10.618,-88.0979 L 10.209,-88.011
 z
M 59.7909,-88.011 L 59.382,-88.0979 L 59,-88.2679 L 58.6617,-88.5137 L 58.382,-88.8244 L 58.1729,-89.1865
 L 58.0437,-89.5842 L 58,-90 L 58.0437,-90.4158 L 58.1729,-90.8135 L 58.382,-91.1756 L 58.6617,-91.4863
 L 59,-91.732 L 59.382,-91.9021 L 59.7909,-91.989 L 60.209,-91.989 L 60.618,-91.9021 L 61,-91.732
 L 61.3383,-91.4863 L 61.618,-91.1756 L 61.8271,-90.8135 L 61.9563,-90.4158 L 62,-90 L 61.9563,-89.5842
 L 61.8271,-89.1865 L 61.618,-88.8244 L 61.3383,-88.5137 L 61,-88.2679 L 60.618,-88.0979 L 60.209,-88.011
 z
M 12.25,-20 L 12.25,-55 L 57.75,-55 L 57.75,-20 z
M 59.7909,-8.01096 L 59.382,-8.09789 L 59,-8.26794 L 58.6617,-8.5137 L 58.382,-8.82442 L 58.1729,-9.18652
 L 58.0437,-9.58417 L 58,-10 L 58.0437,-10.4158 L 58.1729,-10.8135 L 58.382,-11.1756 L 58.6617,-11.4863
 L 59,-11.732 L 59.382,-11.9021 L 59.7909,-11.989 L 60.209,-11.989 L 60.618,-11.9021 L 61,-11.732
 L 61.3383,-11.4863 L 61.618,-11.1756 L 61.8271,-10.8135 L 61.9563,-10.4158 L 62,-10 L 61.9563,-9.58417
 L 61.8271,-9.18652 L 61.618,-8.82442 L 61.3383,-8.5137 L 61,-8.26794 L 60.618,-8.09789 L 60.209,-8.01096
 z
M 9.79094,-8.01096 L 9.38196,-8.09789 L 9,-8.26794 L 8.66173,-8.5137 L 8.38196,-8.82442 L 8.1729,-9.18652
 L 8.0437,-9.58417 L 8,-10 L 8.0437,-10.4158 L 8.1729,-10.8135 L 8.38196,-11.1756 L 8.66173,-11.4863
 L 9,-11.732 L 9.38196,-11.9021 L 9.79094,-11.989 L 10.209,-11.989 L 10.618,-11.9021 L 11,-11.732
 L 11.3383,-11.4863 L 11.618,-11.1756 L 11.8271,-10.8135 L 11.9563,-10.4158 L 12,-10 L 11.9563,-9.58417
 L 11.8271,-9.18652 L 11.618,-8.82442 L 11.3383,-8.5137 L 11,-8.26794 L 10.618,-8.09789 L 10.209,-8.01096
 z
M -20,-25.0274 L -19.4774,-25.0274 L -18.4549,-25.2447 L -17.5,-25.6699 L -16.6544,-26.2843 L -15.9549,-27.0611
 L -15.4323,-27.9663 L -15.1093,-28.9604 L -15,-30 L -15.1093,-31.0396 L -15.4323,-32.0337 L -15.9549,-32.9389
 L -16.6544,-33.7157 L -17.5,-34.3301 L -18.4549,-34.7553 L -19.4774,-34.9726 L -20,-34.9726 L -20,-35
 L -70,-35 L -70,-34.9726 L -70.5226,-34.9726 L -71.5451,-34.7553 L -72.5,-34.3301 L -73.3457,-33.7157
 L -74.0451,-32.9389 L -74.5677,-32.0337 L -74.8907,-31.0396 L -75,-30 L -74.8907,-28.9604 L -74.5677,-27.9663
 L -74.0451,-27.0611 L -73.3457,-26.2843 L -72.5,-25.6699 L -71.5451,-25.2447 L -70.5226,-25.0274 L -70,-25.0274
 L -70,-25 L -20,-25 z
M -70.2091,-28.011 L -70.618,-28.0979 L -71,-28.2679 L -71.3383,-28.5137 L -71.618,-28.8244 L -71.8271,-29.1865
 L -71.9563,-29.5842 L -72,-30 L -71.9563,-30.4158 L -71.8271,-30.8135 L -71.618,-31.1756 L -71.3383,-31.4863
 L -71,-31.732 L -70.618,-31.9021 L -70.2091,-31.989 L -69.791,-31.989 L -69.382,-31.9021 L -69,-31.732
 L -68.6617,-31.4863 L -68.382,-31.1756 L -68.1729,-30.8135 L -68.0437,-30.4158 L -68,-30 L -68.0437,-29.5842
 L -68.1729,-29.1865 L -68.382,-28.8244 L -68.6617,-28.5137 L -69,-28.2679 L -69.382,-28.0979 L -69.791,-28.011
 z
M -20.2091,-28.011 L -20.618,-28.0979 L -21,-28.2679 L -21.3383,-28.5137 L -21.618,-28.8244 L -21.8271,-29.1865
 L -21.9563,-29.5842 L -22,-30 L -21.9563,-30.4158 L -21.8271,-30.8135 L -21.618,-31.1756 L -21.3383,-31.4863
 L -21,-31.732 L -20.618,-31.9021 L -20.2091,-31.989 L -19.791,-31.989 L -19.382,-31.9021 L -19,-31.732
 L -18.6617,-31.4863 L -18.382,-31.1756 L -18.1729,-30.8135 L -18.0437,-30.4158 L -18,-30 L -18.0437,-29.5842
 L -18.1729,-29.1865 L -18.382,-28.8244 L -18.6617,-28.5137 L -19,-28.2679 L -19.382,-28.0979 L -19.791,-28.011
 z
M -10,-10 L -20,-10 L -20,-0 L -10,-0 z
M -38.4549,-0.24472 L -37.5,-0.669876 L -36.6544,-1.28429 L -35.9549,-2.06108 L -35.4323,-2.96632 L -35.1093,-3.96045
 L -35,-5 L -35.1093,-6.03955 L -35.4323,-7.03368 L -35.9549,-7.93892 L -36.6544,-8.71571 L -37.5,-9.33012
 L -38.4549,-9.75528 L -39.4774,-9.9726 L -40.5226,-9.9726 L -41.5451,-9.75528 L -42.5,-9.33012 L -43.3456,-8.71571
 L -44.0451,-7.93892 L -44.5677,-7.03368 L -44.8907,-6.03955 L -45,-5 L -44.8907,-3.96045 L -44.5677,-2.96632
 L -44.0451,-2.06108 L -43.3456,-1.28429 L -42.5,-0.669876 L -41.5451,-0.24472 L -40.5226,-0.0274048 L -39.4774,-0.0274048
 z
M -40.209,-3.01097 L -40.618,-3.0979 L -41,-3.26796 L -41.3383,-3.51372 L -41.618,-3.82443 L -41.8271,-4.18654
 L -41.9563,-4.58418 L -42,-5 L -41.9563,-5.41582 L -41.8271,-5.81346 L -41.618,-6.17557 L -41.3383,-6.48628
 L -41,-6.73204 L -40.618,-6.9021 L -40.209,-6.98903 L -39.791,-6.98903 L -39.382,-6.9021 L -39,-6.73204
 L -38.6617,-6.48628 L -38.382,-6.17557 L -38.1729,-5.81346 L -38.0437,-5.41582 L -38,-5 L -38.0437,-4.58418
 L -38.1729,-4.18654 L -38.382,-3.82443 L -38.6617,-3.51372 L -39,-3.26796 L -39.382,-3.0979 L -39.791,-3.01097
 z
M 170,129.945 L 171.045,129.945 L 173.09,129.511 L 175,128.66 L 176.691,127.431 L 178.09,125.878
 L 179.135,124.067 L 179.781,122.079 L 180,120 L 180,20 L 179.781,17.9209 L 179.135,15.9326
 L 178.09,14.1222 L 176.691,12.5686 L 175,11.3398 L 173.09,10.4894 L 171.045,10.0548 L 170,10.0548
 L 170,10 L 90,10 L 90,10.0548 L 88.9547,10.0548 L 86.9098,10.4894 L 85,11.3398
 L 83.3087,12.5686 L 81.9098,14.1222 L 80.8645,15.9326 L 80.2185,17.9209 L 80,20 L 80,120
 L 80.2185,122.079 L 80.8645,124.067 L 81.9098,125.878 L 83.3087,127.431 L 85,128.66 L 86.9098,129.511
 L 88.9547,129.945 L 90,129.945 L 90,130 L 170,130 z
M 89.7909,21.989 L 89.382,21.9021 L 89,21.7321 L 88.6617,21.4863 L 88.382,21.1756 L 88.1729,20.8135
 L 88.0437,20.4158 L 88,20 L 88.0437,19.5842 L 88.1729,19.1865 L 88.382,18.8244 L 88.6617,18.5137
 L 89,18.268 L 89.382,18.0979 L 89.7909,18.011 L 90.209,18.011 L 90.618,18.0979 L 91,18.268
 L 91.3383,18.5137 L 91.618,18.8244 L 91.8271,19.1865 L 91.9563,19.5842 L 92,20 L 91.9563,20.4158
 L 91.8271,20.8135 L 91.618,21.1756 L 91.3383,21.4863 L 91,21.7321 L 90.618,21.9021 L 90.209,21.989
 z
M 169.791,21.989 L 169.382,21.9021 L 169,21.7321 L 168.662,21.4863 L 168.382,21.1756 L 168.173,20.8135
 L 168.044,20.4158 L 168,20 L 168.044,19.5842 L 168.173,19.1865 L 168.382,18.8244 L 168.662,18.5137
 L 169,18.268 L 169.382,18.0979 L 169.791,18.011 L 170.209,18.011 L 170.618,18.0979 L 171,18.268
 L 171.338,18.5137 L 171.618,18.8244 L 171.827,19.1865 L 171.956,19.5842 L 172,20 L 171.956,20.4158
 L 171.827,20.8135 L 171.618,21.1756 L 171.338,21.4863 L 171,21.7321 L 170.618,21.9021 L 170.209,21.989
 z
M 102.676,33.083 L 102.042,32.9483 L 101.45,32.6847 L 100.926,32.3037 L 100.492,31.8221 L 100.168,31.2609
 L 99.9677,30.6445 L 99.9,30 L 99.9677,29.3555 L 100.168,28.7391 L 100.492,28.1779 L 100.926,27.6963
 L 101.45,27.3153 L 102.042,27.0517 L 102.676,26.917 L 103.324,26.917 L 103.958,27.0517 L 104.55,27.3153
 L 105.074,27.6963 L 105.508,28.1779 L 105.832,28.7391 L 106.032,29.3555 L 106.1,30 L 106.032,30.6445
 L 105.832,31.2609 L 105.508,31.8221 L 105.074,32.3037 L 104.55,32.6847 L 103.958,32.9483 L 103.324,33.083
 z
M 120.676,33.083 L 120.042,32.9483 L 119.45,32.6847 L 118.926,32.3037 L 118.492,31.8221 L 118.168,31.2609
 L 117.968,30.6445 L 117.9,30 L 117.968,29.3555 L 118.168,28.7391 L 118.492,28.1779 L 118.926,27.6963
 L 119.45,27.3153 L 120.042,27.0517 L 120.676,26.917 L 121.324,26.917 L 121.958,27.0517 L 122.55,27.3153
 L 123.074,27.6963 L 123.508,28.1779 L 123.832,28.7391 L 124.032,29.3555 L 124.1,30 L 124.032,30.6445
 L 123.832,31.2609 L 123.508,31.8221 L 123.074,32.3037 L 122.55,32.6847 L 121.958,32.9483 L 121.324,33.083
 z
M 138.676,33.083 L 138.042,32.9483 L 137.45,32.6847 L 136.926,32.3037 L 136.492,31.8221 L 136.168,31.2609
 L 135.968,30.6445 L 135.9,30 L 135.968,29.3555 L 136.168,28.7391 L 136.492,28.1779 L 136.926,27.6963
 L 137.45,27.3153 L 138.042,27.0517 L 138.676,26.917 L 139.324,26.917 L 139.958,27.0517 L 140.55,27.3153
 L 141.074,27.6963 L 141.508,28.1779 L 141.832,28.7391 L 142.032,29.3555 L 142.1,30 L 142.032,30.6445
 L 141.832,31.2609 L 141.508,31.8221 L 141.074,32.3037 L 140.55,32.6847 L 139.958,32.9483 L 139.324,33.083
 z
M 156.676,33.083 L 156.042,32.9483 L 155.45,32.6847 L 154.926,32.3037 L 154.492,31.8221 L 154.168,31.2609
 L 153.968,30.6445 L 153.9,30 L 153.968,29.3555 L 154.168,28.7391 L 154.492,28.1779 L 154.926,27.6963
 L 155.45,27.3153 L 156.042,27.0517 L 156.676,26.917 L 157.324,26.917 L 157.958,27.0517 L 158.55,27.3153
 L 159.074,27.6963 L 159.508,28.1779 L 159.832,28.7391 L 160.032,29.3555 L 160.1,30 L 160.032,30.6445
 L 159.832,31.2609 L 159.508,31.8221 L 159.074,32.3037 L 158.55,32.6847 L 157.958,32.9483 L 157.324,33.083
 z
M 112.85,31 L 112.85,29 L 113.35,29 L 113.35,31 z
M 130.85,31 L 130.85,29 L 131.35,29 L 131.35,31 z
M 148.85,31 L 148.85,29 L 149.35,29 L 149.35,31 z
M 94.85,31 L 94.85,29 L 95.35,29 L 95.35,31 z
M 89.7909,71.989 L 89.382,71.9021 L 89,71.7321 L 88.6617,71.4863 L 88.382,71.1756 L 88.1729,70.8135
 L 88.0437,70.4158 L 88,70 L 88.0437,69.5842 L 88.1729,69.1865 L 88.382,68.8244 L 88.6617,68.5137
 L 89,68.268 L 89.382,68.0979 L 89.7909,68.011 L 90.209,68.011 L 90.618,68.0979 L 91,68.268
 L 91.3383,68.5137 L 91.618,68.8244 L 91.8271,69.1865 L 91.9563,69.5842 L 92,70 L 91.9563,70.4158
 L 91.8271,70.8135 L 91.618,71.1756 L 91.3383,71.4863 L 91,71.7321 L 90.618,71.9021 L 90.209,71.989
 z
M 169.791,71.989 L 169.382,71.9021 L 169,71.7321 L 168.662,71.4863 L 168.382,71.1756 L 168.173,70.8135
 L 168.044,70.4158 L 168,70 L 168.044,69.5842 L 168.173,69.1865 L 168.382,68.8244 L 168.662,68.5137
 L 169,68.268 L 169.382,68.0979 L 169.791,68.011 L 170.209,68.011 L 170.618,68.0979 L 171,68.268
 L 171.338,68.5137 L 171.618,68.8244 L 171.827,69.1865 L 171.956,69.5842 L 172,70 L 171.956,70.4158
 L 171.827,70.8135 L 171.618,71.1756 L 171.338,71.4863 L 171,71.7321 L 170.618,71.9021 L 170.209,71.989
 z
M 156.676,113.083 L 156.042,112.948 L 155.45,112.685 L 154.926,112.304 L 154.492,111.822 L 154.168,111.261
 L 153.968,110.645 L 153.9,110 L 153.968,109.355 L 154.168,108.739 L 154.492,108.178 L 154.926,107.696
 L 155.45,107.315 L 156.042,107.052 L 156.676,106.917 L 157.324,106.917 L 157.958,107.052 L 158.55,107.315
 L 159.074,107.696 L 159.508,108.178 L 159.832,108.739 L 160.032,109.355 L 160.1,110 L 160.032,110.645
 L 159.832,111.261 L 159.508,111.822 L 159.074,112.304 L 158.55,112.685 L 157.958,112.948 L 157.324,113.083
 z
M 138.676,113.083 L 138.042,112.948 L 137.45,112.685 L 136.926,112.304 L 136.492,111.822 L 136.168,111.261
 L 135.968,110.645 L 135.9,110 L 135.968,109.355 L 136.168,108.739 L 136.492,108.178 L 136.926,107.696
 L 137.45,107.315 L 138.042,107.052 L 138.676,106.917 L 139.324,106.917 L 139.958,107.052 L 140.55,107.315
 L 141.074,107.696 L 141.508,108.178 L 141.832,108.739 L 142.032,109.355 L 142.1,110 L 142.032,110.645
 L 141.832,111.261 L 141.508,111.822 L 141.074,112.304 L 140.55,112.685 L 139.958,112.948 L 139.324,113.083
 z
M 120.676,113.083 L 120.042,112.948 L 119.45,112.685 L 118.926,112.304 L 118.492,111.822 L 118.168,111.261
 L 117.968,110.645 L 117.9,110 L 117.968,109.355 L 118.168,108.739 L 118.492,108.178 L 118.926,107.696
 L 119.45,107.315 L 120.042,107.052 L 120.676,106.917 L 121.324,106.917 L 121.958,107.052 L 122.55,107.315
 L 123.074,107.696 L 123.508,108.178 L 123.832,108.739 L 124.032,109.355 L 124.1,110 L 124.032,110.645
 L 123.832,111.261 L 123.508,111.822 L 123.074,112.304 L 122.55,112.685 L 121.958,112.948 L 121.324,113.083
 z
M 102.676,113.083 L 102.042,112.948 L 101.45,112.685 L 100.926,112.304 L 100.492,111.822 L 100.168,111.261
 L 99.9677,110.645 L 99.9,110 L 99.9677,109.355 L 100.168,108.739 L 100.492,108.178 L 100.926,107.696
 L 101.45,107.315 L 102.042,107.052 L 102.676,106.917 L 103.324,106.917 L 103.958,107.052 L 104.55,107.315
 L 105.074,107.696 L 105.508,108.178 L 105.832,108.739 L 106.032,109.355 L 106.1,110 L 106.032,110.645
 L 105.832,111.261 L 105.508,111.822 L 105.074,112.304 L 104.55,112.685 L 103.958,112.948 L 103.324,113.083
 z
M 110.65,111 L 110.65,109 L 111.15,109 L 111.15,111 z
M 128.65,111 L 128.65,109 L 129.15,109 L 129.15,111 z
M 146.65,111 L 146.65,109 L 147.15,109 L 147.15,111 z
M 164.65,111 L 164.65,109 L 165.15,109 L 165.15,111 z
M 169.791,121.989 L 169.382,121.902 L 169,121.732 L 168.662,121.486 L 168.382,121.176 L 168.173,120.813
 L 168.044,120.416 L 168,120 L 168.044,119.584 L 168.173,119.187 L 168.382,118.824 L 168.662,118.514
 L 169,118.268 L 169.382,118.098 L 169.791,118.011 L 170.209,118.011 L 170.618,118.098 L 171,118.268
 L 171.338,118.514 L 171.618,118.824 L 171.827,119.187 L 171.956,119.584 L 172,120 L 171.956,120.416
 L 171.827,120.813 L 171.618,121.176 L 171.338,121.486 L 171,121.732 L 170.618,121.902 L 170.209,121.989
 z
M 89.7909,121.989 L 89.382,121.902 L 89,121.732 L 88.6617,121.486 L 88.382,121.176 L 88.1729,120.813
 L 88.0437,120.416 L 88,120 L 88.0437,119.584 L 88.1729,119.187 L 88.382,118.824 L 88.6617,118.514
 L 89,118.268 L 89.382,118.098 L 89.7909,118.011 L 90.209,118.011 L 90.618,118.098 L 91,118.268
 L 91.3383,118.514 L 91.618,118.824 L 91.8271,119.187 L 91.9563,119.584 L 92,120 L 91.9563,120.416
 L 91.8271,120.813 L 91.618,121.176 L 91.3383,121.486 L 91,121.732 L 90.618,121.902 L 90.209,121.989
 z
M 170,144.973 L 170.523,144.973 L 171.545,144.755 L 172.5,144.33 L 173.346,143.716 L 174.045,142.939
 L 174.568,142.034 L 174.891,141.04 L 175,140 L 174.891,138.96 L 174.568,137.966 L 174.045,137.061
 L 173.346,136.284 L 172.5,135.67 L 171.545,135.245 L 170.523,135.027 L 170,135.027 L 170,135
 L 90,135 L 90,135.027 L 89.4774,135.027 L 88.4549,135.245 L 87.5,135.67 L 86.6543,136.284
 L 85.9549,137.061 L 85.4323,137.966 L 85.1093,138.96 L 85,140 L 85.1093,141.04 L 85.4323,142.034
 L 85.9549,142.939 L 86.6543,143.716 L 87.5,144.33 L 88.4549,144.755 L 89.4774,144.973 L 90,144.973
 L 90,145 L 170,145 z
M 89.7909,141.989 L 89.382,141.902 L 89,141.732 L 88.6617,141.486 L 88.382,141.176 L 88.1729,140.813
 L 88.0437,140.416 L 88,140 L 88.0437,139.584 L 88.1729,139.187 L 88.382,138.824 L 88.6617,138.514
 L 89,138.268 L 89.382,138.098 L 89.7909,138.011 L 90.209,138.011 L 90.618,138.098 L 91,138.268
 L 91.3383,138.514 L 91.618,138.824 L 91.8271,139.187 L 91.9563,139.584 L 92,140 L 91.9563,140.416
 L 91.8271,140.813 L 91.618,141.176 L 91.3383,141.486 L 91,141.732 L 90.618,141.902 L 90.209,141.989
 z
M 169.791,141.989 L 169.382,141.902 L 169,141.732 L 168.662,141.486 L 168.382,141.176 L 168.173,140.813
 L 168.044,140.416 L 168,140 L 168.044,139.584 L 168.173,139.187 L 168.382,138.824 L 168.662,138.514
 L 169,138.268 L 169.382,138.098 L 169.791,138.011 L 170.209,138.011 L 170.618,138.098 L 171,138.268
 L 171.338,138.514 L 171.618,138.824 L 171.827,139.187 L 171.956,139.584 L 172,140 L 171.956,140.416
 L 171.827,140.813 L 171.618,141.176 L 171.338,141.486 L 171,141.732 L 170.618,141.902 L 170.209,141.989
 z
" stroke="black" fill="lightgray" stroke-width="0.5"/>
</svg>
