<svg width="640" height="480" xmlns="http://www.w3.org/2000/svg" xmlns:svg="http://www.w3.org/2000/svg">
<path d="M 98.909 50.012 L 98.800 45.013 A 55.000 55.000 0 0 1 101.200 45.013 L 101.091 50.012 A 50.000 50.000 0 0 1 107.606 50.582 L 108.367 45.640 A 55.000 55.000 0 0 1 110.730 46.057 L 109.755 50.961 A 50.000 50.000 0 0 1 116.072 52.653 L 117.679 47.919 A 55.000 55.000 0 0 1 119.934 48.740 L 118.122 53.400 A 50.000 50.000 0 0 1 124.049 56.164 L 126.454 51.780 A 55.000 55.000 0 0 1 128.533 52.980 L 125.939 57.254 A 50.000 50.000 0 0 1 131.296 61.006 L 134.426 57.106 A 55.000 55.000 0 0 1 136.264 58.649 L 132.967 62.408 A 50.000 50.000 0 0 1 137.592 67.033 L 141.351 63.736 A 55.000 55.000 0 0 1 142.894 65.574 L 138.994 68.704 A 50.000 50.000 0 0 1 142.746 74.061 L 147.020 71.467 A 55.000 55.000 0 0 1 148.220 73.546 L 143.836 75.951 A 50.000 50.000 0 0 1 146.600 81.878 L 151.260 80.066 A 55.000 55.000 0 0 1 152.081 82.321 L 147.347 83.928 A 50.000 50.000 0 0 1 149.039 90.245 L 153.943 89.270 A 55.000 55.000 0 0 1 154.360 91.633 L 149.418 92.394 A 50.000 50.000 0 0 1 149.988 98.909 L 154.987 98.800 A 55.000 55.000 0 0 1 154.987 101.200 L 149.988 101.091 A 50.000 50.000 0 0 1 149.418 107.606 L 154.360 108.367 A 55.000 55.000 0 0 1 153.943 110.730 L 149.039 109.755 A 50.000 50.000 0 0 1 147.347 116.072 L 152.081 117.679 A 55.000 55.000 0 0 1 151.260 119.934 L 146.600 118.122 A 50.000 50.000 0 0 1 143.836 124.049 L 148.220 126.454 A 55.000 55.000 0 0 1 147.020 128.533 L 142.746 125.939 A 50.000 50.000 0 0 1 138.994 131.296 L 142.894 134.426 A 55.000 55.000 0 0 1 141.351 136.264 L 137.592 132.967 A 50.000 50.000 0 0 1 132.967 137.592 L 136.264 141.351 A 55.000 55.000 0 0 1 134.426 142.894 L 131.296 138.994 A 50.000 50.000 0 0 1 125.939 142.746 L 128.533 147.020 A 55.000 55.000 0 0 1 126.454 148.220 L 124.049 143.836 A 50.000 50.000 0 0 1 118.122 146.600 L 119.934 151.260 A 55.000 55.000 0 0 1 117.679 152.081 L 116.072 147.347 A 50.000 50.000 0 0 1 109.755 149.039 L 110.730 153.943 A 55.000 55.000 0 0 1 108.367 154.360 L 107.606 149.418 A 50.000 50.000 0 0 1 101.091 149.988 L 101.200 154.987 A 55.000 55.000 0 0 1 98.800 154.987 L 98.909 149.988 A 50.000 50.000 0 0 1 92.394 149.418 L 91.633 154.360 A 55.000 55.000 0 0 1 89.270 153.943 L 90.245 149.039 A 50.000 50.000 0 0 1 83.928 147.347 L 82.321 152.081 A 55.000 55.000 0 0 1 80.066 151.260 L 81.878 146.600 A 50.000 50.000 0 0 1 75.951 143.836 L 73.546 148.220 A 55.000 55.000 0 0 1 71.467 147.020 L 74.061 142.746 A 50.000 50.000 0 0 1 68.704 138.994 L 65.574 142.894 A 55.000 55.000 0 0 1 63.736 141.351 L 67.033 137.592 A 50.000 50.000 0 0 1 62.408 132.967 L 58.649 136.264 A 55.000 55.000 0 0 1 57.106 134.426 L 61.006 131.296 A 50.000 50.000 0 0 1 57.254 125.939 L 52.980 128.533 A 55.000 55.000 0 0 1 51.780 126.454 L 56.164 124.049 A 50.000 50.000 0 0 1 53.400 118.122 L 48.740 119.934 A 55.000 55.000 0 0 1 47.919 117.679 L 52.653 116.072 A 50.000 50.000 0 0 1 50.961 109.755 L 46.057 110.730 A 55.000 55.000 0 0 1 45.640 108.367 L 50.582 107.606 A 50.000 50.000 0 0 1 50.012 101.091 L 45.013 101.200 A 55.000 55.000 0 0 1 45.013 98.800 L 50.012 98.909 A 50.000 50.000 0 0 1 50.582 92.394 L 45.640 91.633 A 55.000 55.000 0 0 1 46.057 89.270 L 50.961 90.245 A 50.000 50.000 0 0 1 52.653 83.928 L 47.919 82.321 A 55.000 55.000 0 0 1 48.740 80.066 L 53.400 81.878 A 50.000 50.000 0 0 1 56.164 75.951 L 51.780 73.546 A 55.000 55.000 0 0 1 52.980 71.467 L 57.254 74.061 A 50.000 50.000 0 0 1 61.006 68.704 L 57.106 65.574 A 55.000 55.000 0 0 1 58.649 63.736 L 62.408 67.033 A 50.000 50.000 0 0 1 67.033 62.408 L 63.736 58.649 A 55.000 55.000 0 0 1 65.574 57.106 L 68.704 61.006 A 50.000 50.000 0 0 1 74.061 57.254 L 71.467 52.980 A 55.000 55.000 0 0 1 73.546 51.780 L 75.951 56.164 A 50.000 50.000 0 0 1 81.878 53.400 A 50.000 50.000 0 0 1 98.909 50.012 Z" stroke="green" fill="transparent"/>
<path transform="translate(120)" d="M 98.909 50.012 L 98.800 45.013 A 55.000 55.000 0 0 1 101.200 45.013 L 101.091 50.012 A 50.000 50.000 0 0 1 149.988 98.909 L 154.987 98.800 A 55.000 55.000 0 0 1 154.987 101.200 L 149.988 101.091 A 50.000 50.000 0 0 1 101.091 149.988 L 101.200 154.987 A 55.000 55.000 0 0 1 98.800 154.987 L 98.909 149.988 A 50.000 50.000 0 0 1 50.012 101.091 L 45.013 101.200 A 55.000 55.000 0 0 1 45.013 98.800 L 50.012 98.909 A 50.000 50.000 0 0 1 98.909 50.012 Z" stroke="blue" fill="transparent"/>
<path transform="translate(240)" d="M 98.909 50.012 L 98.800 45.013 A 55.000 55.000 0 0 1 101.200 45.013 L 101.091 50.012 A 50.000 50.000 0 0 1 149.988 98.909 L 154.987 98.800 A 55.000 55.000 0 0 1 154.987 101.200 L 149.988 101.091 A 50.000 50.000 0 0 1 101.091 149.988 L 101.200 154.987 A 55.000 55.000 0 0 1 98.800 154.987 L 98.909 149.988 A 50.000 50.000 0 0 1 50.012 101.091 A 50.000 50.000 0 0 1 98.909 50.012 Z" stroke="red" fill="transparent"/>
</svg>
