<?xml version="1.0" standalone="no"?>
<!DOCTYPE svg PUBLIC "-//W3C//DTD SVG 1.1//EN" "http://www.w3.org/Graphics/SVG/1.1/DTD/svg11.dtd">
<svg width="225mm" height="100mm" viewBox="-75 -100 225 100" xmlns="http://www.w3.org/2000/svg" version="1.1">
<title>OpenSCAD Model</title>
<path d="
M 60,-0.0547791 L 61.0453,-0.0547791 L 63.0902,-0.489426 L 65,-1.33974 L 66.6913,-2.56854 L 68.0902,-4.12215
 L 69.1355,-5.93263 L 69.7815,-7.92087 L 70,-10 L 70,-90 L 69.7815,-92.0791 L 69.1355,-94.0674
 L 68.0902,-95.8778 L 66.6913,-97.4314 L 65,-98.6602 L 63.0902,-99.5106 L 61.0453,-99.9452 L 60,-99.9452
 L 60,-100 L 10,-100 L 10,-99.9452 L 8.95471,-99.9452 L 6.90982,-99.5106 L 5,-98.6602
 L 3.30869,-97.4314 L 1.90982,-95.8778 L 0.864532,-94.0674 L 0.218521,-92.0791 L 0,-90 L 0,-10
 L 0.218521,-7.92087 L 0.864532,-5.93263 L 1.90982,-4.12215 L 3.30869,-2.56854 L 5,-1.33974 L 6.90982,-0.489426
 L 8.95471,-0.0547791 L 10,-0.0547791 L 10,-0 L 60,-0 z
M 59.7909,-88.011 L 59.382,-88.0979 L 59,-88.2679 L 58.6617,-88.5137 L 58.382,-88.8244 L 58.1729,-89.1865
 L 58.0437,-89.5842 L 58,-90 L 58.0437,-90.4158 L 58.1729,-90.8135 L 58.382,-91.1756 L 58.6617,-91.4863
 L 59,-91.732 L 59.382,-91.9021 L 59.7909,-91.989 L 60.209,-91.989 L 60.618,-91.9021 L 61,-91.732
 L 61.3383,-91.4863 L 61.618,-91.1756 L 61.8271,-90.8135 L 61.9563,-90.4158 L 62,-90 L 61.9563,-89.5842
 L 61.8271,-89.1865 L 61.618,-88.8244 L 61.3383,-88.5137 L 61,-88.2679 L 60.618,-88.0979 L 60.209,-88.011
 z
M 9.79094,-88.011 L 9.38196,-88.0979 L 9,-88.2679 L 8.66173,-88.5137 L 8.38196,-88.8244 L 8.1729,-89.1865
 L 8.0437,-89.5842 L 8,-90 L 8.0437,-90.4158 L 8.1729,-90.8135 L 8.38196,-91.1756 L 8.66173,-91.4863
 L 9,-91.732 L 9.38196,-91.9021 L 9.79094,-91.989 L 10.209,-91.989 L 10.618,-91.9021 L 11,-91.732
 L 11.3383,-91.4863 L 11.618,-91.1756 L 11.8271,-90.8135 L 11.9563,-90.4158 L 12,-90 L 11.9563,-89.5842
 L 11.8271,-89.1865 L 11.618,-88.8244 L 11.3383,-88.5137 L 11,-88.2679 L 10.618,-88.0979 L 10.209,-88.011
 z
M 12.25,-20 L 12.25,-55 L 57.75,-55 L 57.75,-20 z
M 9.79094,-8.01096 L 9.38196,-8.09789 L 9,-8.26794 L 8.66173,-8.5137 L 8.38196,-8.82442 L 8.1729,-9.18652
 L 8.0437,-9.58417 L 8,-10 L 8.0437,-10.4158 L 8.1729,-10.8135 L 8.38196,-11.1756 L 8.66173,-11.4863
 L 9,-11.732 L 9.38196,-11.9021 L 9.79094,-11.989 L 10.209,-11.989 L 10.618,-11.9021 L 11,-11.732
 L 11.3383,-11.4863 L 11.618,-11.1756 L 11.8271,-10.8135 L 11.9563,-10.4158 L 12,-10 L 11.9563,-9.58417
 L 11.8271,-9.18652 L 11.618,-8.82442 L 11.3383,-8.5137 L 11,-8.26794 L 10.618,-8.09789 L 10.209,-8.01096
 z
M 59.7909,-8.01096 L 59.382,-8.09789 L 59,-8.26794 L 58.6617,-8.5137 L 58.382,-8.82442 L 58.1729,-9.18652
 L 58.0437,-9.58417 L 58,-10 L 58.0437,-10.4158 L 58.1729,-10.8135 L 58.382,-11.1756 L 58.6617,-11.4863
 L 59,-11.732 L 59.382,-11.9021 L 59.7909,-11.989 L 60.209,-11.989 L 60.618,-11.9021 L 61,-11.732
 L 61.3383,-11.4863 L 61.618,-11.1756 L 61.8271,-10.8135 L 61.9563,-10.4158 L 62,-10 L 61.9563,-9.58417
 L 61.8271,-9.18652 L 61.618,-8.82442 L 61.3383,-8.5137 L 61,-8.26794 L 60.618,-8.09789 L 60.209,-8.01096
 z
M 140,-0.0547791 L 141.045,-0.0547791 L 143.09,-0.489426 L 145,-1.33974 L 146.691,-2.56854 L 148.09,-4.12215
 L 149.135,-5.93263 L 149.781,-7.92087 L 150,-10 L 150,-90 L 149.781,-92.0791 L 149.135,-94.0674
 L 148.09,-95.8778 L 146.691,-97.4314 L 145,-98.6602 L 143.09,-99.5106 L 141.045,-99.9452 L 140,-99.9452
 L 140,-100 L 90,-100 L 90,-99.9452 L 88.9547,-99.9452 L 86.9098,-99.5106 L 85,-98.6602
 L 83.3087,-97.4314 L 81.9098,-95.8778 L 80.8645,-94.0674 L 80.2185,-92.0791 L 80,-90 L 80,-10
 L 80.2185,-7.92087 L 80.8645,-5.93263 L 81.9098,-4.12215 L 83.3087,-2.56854 L 85,-1.33974 L 86.9098,-0.489426
 L 88.9547,-0.0547791 L 90,-0.0547791 L 90,-0 L 140,-0 z
M 89.7909,-88.011 L 89.382,-88.0979 L 89,-88.2679 L 88.6617,-88.5137 L 88.382,-88.8244 L 88.1729,-89.1865
 L 88.0437,-89.5842 L 88,-90 L 88.0437,-90.4158 L 88.1729,-90.8135 L 88.382,-91.1756 L 88.6617,-91.4863
 L 89,-91.732 L 89.382,-91.9021 L 89.7909,-91.989 L 90.209,-91.989 L 90.618,-91.9021 L 91,-91.732
 L 91.3383,-91.4863 L 91.618,-91.1756 L 91.8271,-90.8135 L 91.9563,-90.4158 L 92,-90 L 91.9563,-89.5842
 L 91.8271,-89.1865 L 91.618,-88.8244 L 91.3383,-88.5137 L 91,-88.2679 L 90.618,-88.0979 L 90.209,-88.011
 z
M 139.791,-88.011 L 139.382,-88.0979 L 139,-88.2679 L 138.662,-88.5137 L 138.382,-88.8244 L 138.173,-89.1865
 L 138.044,-89.5842 L 138,-90 L 138.044,-90.4158 L 138.173,-90.8135 L 138.382,-91.1756 L 138.662,-91.4863
 L 139,-91.732 L 139.382,-91.9021 L 139.791,-91.989 L 140.209,-91.989 L 140.618,-91.9021 L 141,-91.732
 L 141.338,-91.4863 L 141.618,-91.1756 L 141.827,-90.8135 L 141.956,-90.4158 L 142,-90 L 141.956,-89.5842
 L 141.827,-89.1865 L 141.618,-88.8244 L 141.338,-88.5137 L 141,-88.2679 L 140.618,-88.0979 L 140.209,-88.011
 z
M 94.676,-71.917 L 94.0421,-72.0517 L 93.45,-72.3153 L 92.9257,-72.6963 L 92.4921,-73.1779 L 92.168,-73.7391
 L 91.9677,-74.3555 L 91.9,-75 L 91.9677,-75.6445 L 92.168,-76.2609 L 92.4921,-76.8221 L 92.9257,-77.3037
 L 93.45,-77.6847 L 94.0421,-77.9483 L 94.676,-78.083 L 95.324,-78.083 L 95.9579,-77.9483 L 96.55,-77.6847
 L 97.0743,-77.3037 L 97.5079,-76.8221 L 97.832,-76.2609 L 98.0323,-75.6445 L 98.1,-75 L 98.0323,-74.3555
 L 97.832,-73.7391 L 97.5079,-73.1779 L 97.0743,-72.6963 L 96.55,-72.3153 L 95.9579,-72.0517 L 95.324,-71.917
 z
M 114.676,-71.917 L 114.042,-72.0517 L 113.45,-72.3153 L 112.926,-72.6963 L 112.492,-73.1779 L 112.168,-73.7391
 L 111.968,-74.3555 L 111.9,-75 L 111.968,-75.6445 L 112.168,-76.2609 L 112.492,-76.8221 L 112.926,-77.3037
 L 113.45,-77.6847 L 114.042,-77.9483 L 114.676,-78.083 L 115.324,-78.083 L 115.958,-77.9483 L 116.55,-77.6847
 L 117.074,-77.3037 L 117.508,-76.8221 L 117.832,-76.2609 L 118.032,-75.6445 L 118.1,-75 L 118.032,-74.3555
 L 117.832,-73.7391 L 117.508,-73.1779 L 117.074,-72.6963 L 116.55,-72.3153 L 115.958,-72.0517 L 115.324,-71.917
 z
M 134.676,-71.917 L 134.042,-72.0517 L 133.45,-72.3153 L 132.926,-72.6963 L 132.492,-73.1779 L 132.168,-73.7391
 L 131.968,-74.3555 L 131.9,-75 L 131.968,-75.6445 L 132.168,-76.2609 L 132.492,-76.8221 L 132.926,-77.3037
 L 133.45,-77.6847 L 134.042,-77.9483 L 134.676,-78.083 L 135.324,-78.083 L 135.958,-77.9483 L 136.55,-77.6847
 L 137.074,-77.3037 L 137.508,-76.8221 L 137.832,-76.2609 L 138.032,-75.6445 L 138.1,-75 L 138.032,-74.3555
 L 137.832,-73.7391 L 137.508,-73.1779 L 137.074,-72.6963 L 136.55,-72.3153 L 135.958,-72.0517 L 135.324,-71.917
 z
M 126.85,-74 L 126.85,-76 L 127.35,-76 L 127.35,-74 z
M 106.85,-74 L 106.85,-76 L 107.35,-76 L 107.35,-74 z
M 86.85,-74 L 86.85,-76 L 87.35,-76 L 87.35,-74 z
M 92.4,-49.85 L 92.4,-54.85 L 137.6,-54.85 L 137.6,-49.85 z
M 92.4,-20.15 L 92.4,-25.15 L 137.6,-25.15 L 137.6,-20.15 z
M 139.791,-8.01096 L 139.382,-8.09789 L 139,-8.26794 L 138.662,-8.5137 L 138.382,-8.82442 L 138.173,-9.18652
 L 138.044,-9.58417 L 138,-10 L 138.044,-10.4158 L 138.173,-10.8135 L 138.382,-11.1756 L 138.662,-11.4863
 L 139,-11.732 L 139.382,-11.9021 L 139.791,-11.989 L 140.209,-11.989 L 140.618,-11.9021 L 141,-11.732
 L 141.338,-11.4863 L 141.618,-11.1756 L 141.827,-10.8135 L 141.956,-10.4158 L 142,-10 L 141.956,-9.58417
 L 141.827,-9.18652 L 141.618,-8.82442 L 141.338,-8.5137 L 141,-8.26794 L 140.618,-8.09789 L 140.209,-8.01096
 z
M 89.7909,-8.01096 L 89.382,-8.09789 L 89,-8.26794 L 88.6617,-8.5137 L 88.382,-8.82442 L 88.1729,-9.18652
 L 88.0437,-9.58417 L 88,-10 L 88.0437,-10.4158 L 88.1729,-10.8135 L 88.382,-11.1756 L 88.6617,-11.4863
 L 89,-11.732 L 89.382,-11.9021 L 89.7909,-11.989 L 90.209,-11.989 L 90.618,-11.9021 L 91,-11.732
 L 91.3383,-11.4863 L 91.618,-11.1756 L 91.8271,-10.8135 L 91.9563,-10.4158 L 92,-10 L 91.9563,-9.58417
 L 91.8271,-9.18652 L 91.618,-8.82442 L 91.3383,-8.5137 L 91,-8.26794 L 90.618,-8.09789 L 90.209,-8.01096
 z
M -20,-25.0274 L -19.4774,-25.0274 L -18.4549,-25.2447 L -17.5,-25.6699 L -16.6544,-26.2843 L -15.9549,-27.0611
 L -15.4323,-27.9663 L -15.1093,-28.9604 L -15,-30 L -15.1093,-31.0396 L -15.4323,-32.0337 L -15.9549,-32.9389
 L -16.6544,-33.7157 L -17.5,-34.3301 L -18.4549,-34.7553 L -19.4774,-34.9726 L -20,-34.9726 L -20,-35
 L -70,-35 L -70,-34.9726 L -70.5226,-34.9726 L -71.5451,-34.7553 L -72.5,-34.3301 L -73.3457,-33.7157
 L -74.0451,-32.9389 L -74.5677,-32.0337 L -74.8907,-31.0396 L -75,-30 L -74.8907,-28.9604 L -74.5677,-27.9663
 L -74.0451,-27.0611 L -73.3457,-26.2843 L -72.5,-25.6699 L -71.5451,-25.2447 L -70.5226,-25.0274 L -70,-25.0274
 L -70,-25 L -20,-25 z
M -70.2091,-28.011 L -70.618,-28.0979 L -71,-28.2679 L -71.3383,-28.5137 L -71.618,-28.8244 L -71.8271,-29.1865
 L -71.9563,-29.5842 L -72,-30 L -71.9563,-30.4158 L -71.8271,-30.8135 L -71.618,-31.1756 L -71.3383,-31.4863
 L -71,-31.732 L -70.618,-31.9021 L -70.2091,-31.989 L -69.791,-31.989 L -69.382,-31.9021 L -69,-31.732
 L -68.6617,-31.4863 L -68.382,-31.1756 L -68.1729,-30.8135 L -68.0437,-30.4158 L -68,-30 L -68.0437,-29.5842
 L -68.1729,-29.1865 L -68.382,-28.8244 L -68.6617,-28.5137 L -69,-28.2679 L -69.382,-28.0979 L -69.791,-28.011
 z
M -20.2091,-28.011 L -20.618,-28.0979 L -21,-28.2679 L -21.3383,-28.5137 L -21.618,-28.8244 L -21.8271,-29.1865
 L -21.9563,-29.5842 L -22,-30 L -21.9563,-30.4158 L -21.8271,-30.8135 L -21.618,-31.1756 L -21.3383,-31.4863
 L -21,-31.732 L -20.618,-31.9021 L -20.2091,-31.989 L -19.791,-31.989 L -19.382,-31.9021 L -19,-31.732
 L -18.6617,-31.4863 L -18.382,-31.1756 L -18.1729,-30.8135 L -18.0437,-30.4158 L -18,-30 L -18.0437,-29.5842
 L -18.1729,-29.1865 L -18.382,-28.8244 L -18.6617,-28.5137 L -19,-28.2679 L -19.382,-28.0979 L -19.791,-28.011
 z
M -10,-10 L -20,-10 L -20,-0 L -10,-0 z
M -38.4549,-0.24472 L -37.5,-0.669876 L -36.6544,-1.28429 L -35.9549,-2.06108 L -35.4323,-2.96632 L -35.1093,-3.96045
 L -35,-5 L -35.1093,-6.03955 L -35.4323,-7.03368 L -35.9549,-7.93892 L -36.6544,-8.71571 L -37.5,-9.33012
 L -38.4549,-9.75528 L -39.4774,-9.9726 L -40.5226,-9.9726 L -41.5451,-9.75528 L -42.5,-9.33012 L -43.3456,-8.71571
 L -44.0451,-7.93892 L -44.5677,-7.03368 L -44.8907,-6.03955 L -45,-5 L -44.8907,-3.96045 L -44.5677,-2.96632
 L -44.0451,-2.06108 L -43.3456,-1.28429 L -42.5,-0.669876 L -41.5451,-0.24472 L -40.5226,-0.0274048 L -39.4774,-0.0274048
 z
M -40.209,-3.01097 L -40.618,-3.0979 L -41,-3.26796 L -41.3383,-3.51372 L -41.618,-3.82443 L -41.8271,-4.18654
 L -41.9563,-4.58418 L -42,-5 L -41.9563,-5.41582 L -41.8271,-5.81346 L -41.618,-6.17557 L -41.3383,-6.48628
 L -41,-6.73204 L -40.618,-6.9021 L -40.209,-6.98903 L -39.791,-6.98903 L -39.382,-6.9021 L -39,-6.73204
 L -38.6617,-6.48628 L -38.382,-6.17557 L -38.1729,-5.81346 L -38.0437,-5.41582 L -38,-5 L -38.0437,-4.58418
 L -38.1729,-4.18654 L -38.382,-3.82443 L -38.6617,-3.51372 L -39,-3.26796 L -39.382,-3.0979 L -39.791,-3.01097
 z
" stroke="black" fill="lightgray" stroke-width="0.5"/>
</svg>
